Input #0, mov,mp4,m4a,3gp,3g2,mj2, from '/home/hbattu/projects/huberman-gpt/huberman-audio/mp3/tmpuxo7xi_c.mp4':
  Metadata:
    major_brand     : dash
    minor_version   : 0
    compatible_brands: iso6mp41
    creation_time   : 2021-07-07T10:21:08.000000Z
  Duration: 02:03:36.20, start: 0.000000, bitrate: 129 kb/s
    Stream #0:0(und): Audio: aac (LC) (mp4a / 0x6134706D), 44100 Hz, stereo, fltp, 0 kb/s (default)
    Metadata:
      creation_time   : 2021-07-07T10:21:08.000000Z
      handler_name    : ISO Media file produced by Google Inc.
Stream mapping:
  Stream #0:0 -> #0:0 (aac (native) -> mp3 (libmp3lame))
Press [q] to stop, [?] for help
[graph_0_in_0_0 @ 0x55f7c6a48540] tb:1/44100 samplefmt:fltp samplerate:44100 chlayout:0x3
Output #0, mp3, to '../huberman-audio/mp3/JVRyzYB9JSY.mp3':
  Metadata:
    major_brand     : dash
    minor_version   : 0
    compatible_brands: iso6mp41
    TSSE            : Lavf58.29.100
    Stream #0:0(und): Audio: mp3 (libmp3lame), 44100 Hz, stereo, fltp, delay 1105 (default)
    Metadata:
      creation_time   : 2021-07-07T10:21:08.000000Z
      handler_name    : ISO Media file produced by Google Inc.
      encoder         : Lavc58.54.100 libmp3lame
No more output streams to write to, finishing.
size=  115879kB time=02:03:36.21 bitrate= 128.0kbits/s speed=87.2x    
[AVIOContext @ 0x55f7c6938900] Statistics: 0 seeks, 170 writeouts
video:0kB audio:115879kB subtitle:0kB other streams:0kB global headers:0kB muxing overhead: 0.000292%
Input file #0 (/home/hbattu/projects/huberman-gpt/huberman-audio/mp3/tmpuxo7xi_c.mp4):
  Input stream #0:0 (audio): 319389 packets read (118659169 bytes); 319389 frames decoded (327054336 samples); 
  Total: 319389 packets (118659169 bytes) demuxed
Output file #0 (../huberman-audio/mp3/JVRyzYB9JSY.mp3):
  Output stream #0:0 (audio): 283902 frames encoded (327054336 samples); 283903 packets muxed (118659866 bytes); 
  Total: 283903 packets (118659866 bytes) muxed
[AVIOContext @ 0x55f7c6963940] Statistics: 2 seeks, 454 writeouts
[AVIOContext @ 0x55f7c6941880] Statistics: 120023577 bytes read, 0 seeks
